<?xml version="1.0" encoding="UTF-8"?>
<svg xmlns="http://www.w3.org/2000/svg" id="Layer_1" data-name="Layer 1" viewBox="0 0 39.77 39.77"><path d="M14.81,19.88A5.08,5.08,0,1,1,19.88,25,5.07,5.07,0,0,1,14.81,19.88Z" style="fill:#002e6d"/><path d="M14.81,34.69a5.08,5.08,0,1,1,5.07,5.08A5.07,5.07,0,0,1,14.81,34.69Z" style="fill:#0071ce"/><path d="M29.63,19.88A5.07,5.07,0,1,1,34.7,25,5.08,5.08,0,0,1,29.63,19.88Z" style="fill:#0071ce"/><path d="M0,34.69a5.07,5.07,0,1,1,5.07,5.08A5.07,5.07,0,0,1,0,34.69Z" style="fill:#0071ce"/><path d="M29.63,5.07a5.07,5.07,0,1,1,5.07,5.07A5.06,5.06,0,0,1,29.63,5.07Z" style="fill:#0071ce"/><path d="M0,19.88A5.07,5.07,0,1,1,5.07,25,5.08,5.08,0,0,1,0,19.88Z" style="fill:#0071ce"/><path d="M14.81,5.07a5.08,5.08,0,1,1,5.07,5.07A5.08,5.08,0,0,1,14.81,5.07Z" style="fill:#0071ce"/></svg>