<?xml version="1.0" standalone="no"?>
<!DOCTYPE svg PUBLIC "-//W3C//DTD SVG 20010904//EN"
 "http://www.w3.org/TR/2001/REC-SVG-20010904/DTD/svg10.dtd">
<svg version="1.0" xmlns="http://www.w3.org/2000/svg"
 width="128.000000pt" height="128.000000pt" viewBox="0 0 128.000000 128.000000"
 preserveAspectRatio="xMidYMid meet">

<g transform="translate(0.000000,128.000000) scale(0.100000,-0.100000)"
fill="#000000" stroke="none">
<path d="M218 1095 c-21 -14 -38 -29 -38 -33 0 -4 -10 -19 -22 -32 -169 -189
-194 -483 -61 -709 75 -127 198 -227 345 -278 62 -23 91 -26 193 -27 110 -1
157 6 230 34 68 26 105 44 105 52 0 4 7 8 15 8 8 0 15 5 15 10 0 6 6 10 14 10
8 0 17 7 20 16 12 32 6 44 -21 45 -16 0 -37 4 -48 9 -15 6 -6 9 33 9 l53 1 -6
78 c-5 67 -11 116 -20 172 -6 36 -18 78 -33 110 -9 19 -16 38 -17 42 0 3 -3 9
-6 12 -3 4 15 89 41 191 26 101 45 187 42 190 -3 3 -74 5 -159 5 -152 0 -153
0 -153 -22 0 -44 -14 -50 -51 -22 -19 14 -56 37 -84 51 -27 14 -61 32 -75 39
-22 11 -50 20 -165 51 -67 17 -110 14 -147 -12z m767 -187 c-13 -61 -56 -188
-63 -188 -4 0 -16 14 -26 32 -19 31 -31 46 -88 111 -16 17 -28 41 -28 54 0 23
2 23 106 23 l106 0 -7 -32z m-645 -70 c11 -12 25 -40 31 -63 6 -22 13 -43 16
-47 2 -5 -5 -8 -15 -8 -12 0 -24 11 -32 31 -17 41 -37 59 -56 52 -19 -7 -51
-69 -63 -122 l-9 -41 112 0 113 0 12 53 c17 76 45 133 76 153 23 15 28 15 36
3 15 -24 10 -46 -11 -52 -26 -7 -66 -95 -75 -166 l-7 -54 -97 7 c-53 3 -120 6
-148 6 -63 0 -62 -1 -32 112 37 136 97 191 149 136z m100 -385 c14 -56 26 -73
52 -73 22 0 72 51 89 92 6 15 15 25 20 22 14 -8 11 -52 -5 -83 -19 -36 -82
-91 -105 -91 -28 0 -58 40 -80 107 -25 76 -25 73 -2 73 14 0 22 -12 31 -47z"/>
<path d="M1095 1070 c10 -11 20 -20 23 -20 3 0 -3 9 -13 20 -10 11 -20 20 -23
20 -3 0 3 -9 13 -20z"/>
<path d="M1089 193 l-24 -28 28 24 c15 14 27 26 27 28 0 8 -8 1 -31 -24z"/>
</g>
</svg>
